<svg
    xmlns="http://www.w3.org/2000/svg"
    viewBox="0 0 141 125"
    id="vector">
    <path
        id="path"
        d="M 54.5 1.9 C 52.3 2.9 48.6 4.5 46.3 5.5 C 43.9 6.5 42 7.7 42 8.2 C 42 8.6 41 9 39.7 9 C 38.5 9 36.4 9.7 35.2 10.6 C 34 11.4 33 11.6 33 11.1 C 33 10.5 32.3 10 31.5 10 C 30.4 10 30 8.9 30 6.1 C 30 3.6 29.5 2 28.5 1.6 C 26.8 1 21 2.8 21 4 C 21 4.4 19.1 5.3 16.7 5.8 C 14.3 6.4 11.3 7.9 10 9 C 8.7 10.1 7.2 10.9 6.6 10.7 C 5.5 10.3 0 16.6 0 18.1 C 0 18.6 1.8 18.9 4 18.8 C 6.3 18.7 7.7 18.3 7.3 17.7 C 6.9 17.1 7.6 16.9 9.1 17.3 C 10.4 17.7 12.5 18 13.7 18 C 15.8 18 15.7 18.3 12.1 23.7 C 5.7 33.4 5.6 33.7 5.5 46.2 C 5.4 52.8 5.8 57.6 6.3 57.3 C 6.8 57 7.1 57.6 6.9 58.6 C 6.8 59.7 7.2 61.8 7.8 63.3 C 8.5 64.9 9 66.6 9 67.1 C 9 67.6 9.5 68 10.1 68 C 10.7 68 10.9 68.7 10.6 69.6 C 9.9 71.4 12.5 74.4 13.9 73.5 C 14.5 73.2 16.4 74.6 18.3 76.6 C 21.5 80.1 22.1 80.3 27.1 80.2 C 31.3 80.1 32.9 79.6 34.2 77.9 C 36.6 75 36.4 74.2 33.5 74.8 C 31.9 75.1 30.8 74.7 30.4 73.7 C 30.1 72.9 28.1 71 25.9 69.6 C 23.2 67.7 22 66.3 22 64.5 C 22 63.2 21.6 61.9 21.1 61.6 C 19.7 60.7 19 55.5 18.4 41.3 L 17.8 28.1 L 21.6 27.4 C 23.7 27 26.3 25.9 27.4 24.9 C 28.5 23.8 29.7 23 30.2 23 C 31.4 23 43 14.8 43 13.9 C 43 13.1 47.8 11.4 52.2 10.6 C 55.4 10.1 60.6 14.5 61.6 18.7 C 62.5 22 65.8 28.1 67.7 29.6 C 68.5 30.3 69.2 34 69.6 39.6 C 70 47.2 69.8 49.8 67.6 57 C 66.3 61.6 65.3 65.7 65.5 66.1 C 65.7 66.4 67.2 66.5 68.7 66.2 C 71.1 65.9 72.1 64.6 75.8 57 C 79.4 49.4 80 47.4 80 41.7 C 80 38.1 80.5 34.8 81 34.5 C 81.6 34.2 82 31 82 27.5 C 82 21.6 82.2 21.2 84.5 20.6 C 85.9 20.2 87 19.5 87 19 C 87 18.4 87.6 18 88.4 18 C 89.2 18 90 17.3 90.4 16.5 C 90.7 15.7 91.6 15 92.5 15 C 93.3 15 94 14.6 94 14.2 C 94 12.9 102.5 11 108.1 11 C 114.7 11 119.2 14.1 122.6 20.9 C 125.1 25.8 125.2 26.8 124.8 37.3 C 124.5 43.5 123.7 49.6 123 50.9 C 122.3 52.2 121.6 54.5 121.4 55.9 C 120.7 61.6 119.7 65.6 118.9 66.6 C 118.4 67.2 118.3 68.6 118.7 69.5 C 119.1 70.8 119 71.1 118.2 70.6 C 117 69.9 116.6 71.1 116.9 73.8 C 117 74.6 116.1 76.2 114.8 77.5 C 111.4 80.9 110.6 82 108.2 87.1 C 107 89.6 104.8 92.8 103.4 94.1 C 101.9 95.4 98.5 99.2 95.7 102.5 C 93 105.8 88.2 110.1 85.1 112.1 C 78.6 116.2 74 120.3 74 121.9 C 74 125.7 89.9 118.7 99.5 110.7 C 106.4 104.9 117 93.9 117 92.6 C 117 92.1 118.7 89.4 120.8 86.6 C 127.1 78.3 130 73.2 130 70.6 C 130 68.6 130.4 68.2 131.7 68.7 C 132.7 69.1 133.1 68.9 132.7 68.3 C 132.3 67.7 132.5 67 133.2 66.8 C 133.8 66.6 134.4 65.5 134.5 64.4 C 135 59.8 136.2 55.5 137.3 54.2 C 139.1 52 138.6 18.5 136.7 14 C 135.9 12.1 135.1 10 135 9.5 C 134.9 8.9 134.2 7.8 133.5 7 C 132.8 6.2 132 4.8 131.8 4 C 131 0.4 129.3 -0.2 119.3 0.4 C 105.7 1 106 1 106 2.1 C 106 2.7 105.6 2.8 105 2.5 C 104.5 2.2 104 2.4 104 2.9 C 104 3.5 103.1 4 102 4 C 100.9 4 100 4.4 100 4.8 C 100 5.3 98.2 6.5 96 7.5 C 93.8 8.5 92 9.7 92 10.2 C 92 10.7 91.5 11 90.8 10.8 C 89.4 10.3 84.9 14 85.5 15.1 C 86.2 16.1 80.4 17.3 79 16.5 C 78.5 16.2 78 15 78 14 C 78 13 77.6 11.9 77.1 11.6 C 76.7 11.3 75.7 9 75 6.5 C 73.7 1.7 73.5 1.6 65.8 1.9 C 63.7 2 62 1.6 62 1 C 62 -0.5 59 -0.1 54.5 1.9 Z"
        fill="#ffffff"
        stroke="#00000000"/>
</svg>
